<?xml version="1.0" encoding="UTF-8" standalone="no"?>
<svg
   width="18.75"
   height="25"
   fill="currentColor"
   class="bi bi-file-person"
   viewBox="0 0 18.75 25"
   version="1.1"
   id="svg6"
   sodipodi:docname="about.svg"
   inkscape:version="1.1.2 (0a00cf5339, 2022-02-04, custom)"
   xmlns:inkscape="http://www.inkscape.org/namespaces/inkscape"
   xmlns:sodipodi="http://sodipodi.sourceforge.net/DTD/sodipodi-0.dtd"
   xmlns="http://www.w3.org/2000/svg"
   xmlns:svg="http://www.w3.org/2000/svg">
  <defs
     id="defs10" />
  <sodipodi:namedview
     id="namedview8"
     pagecolor="#ffffff"
     bordercolor="#999999"
     borderopacity="1"
     inkscape:pageshadow="0"
     inkscape:pageopacity="0"
     inkscape:pagecheckerboard="0"
     showgrid="false"
     inkscape:zoom="9.4686018"
     inkscape:cx="7.5512733"
     inkscape:cy="9.7163237"
     inkscape:window-width="1920"
     inkscape:window-height="1017"
     inkscape:window-x="-8"
     inkscape:window-y="-8"
     inkscape:window-maximized="1"
     inkscape:current-layer="svg6" />
  <path
     id="path2"
     style="stroke-width:1"
     d="M 3.125,0 A 3.125,3.125 0 0 0 0,3.125 v 18.75 A 3.125,3.125 0 0 0 3.125,25 h 12.5 A 3.125,3.125 0 0 0 18.75,21.875 V 3.125 A 3.125,3.125 0 0 0 15.625,0 Z m 0,1.5625 h 12.5 a 1.5625,1.5625 0 0 1 1.5625,1.5625 v 16.804688 c 0,0 -1.5625,-2.742188 -7.8125,-2.742188 -6.25,0 -7.8125,2.742188 -7.8125,2.742188 V 3.125 A 1.5625,1.5625 0 0 1 3.125,1.5625 Z M 9.375,6.25 a 4.6875,4.6875 0 0 0 0,9.375 4.6875,4.6875 0 0 0 0,-9.375 z" />
</svg>
