<?xml version="1.0" encoding="UTF-8" standalone="no"?>
<svg
   id="Layer_1"
   data-name="Layer 1"
   viewBox="0 0 28.500502 25.000002"
   version="1.1"
   sodipodi:docname="contact-icon.svg"
   width="28.500502"
   height="25.000002"
   inkscape:version="1.1.2 (0a00cf5339, 2022-02-04, custom)"
   xmlns:inkscape="http://www.inkscape.org/namespaces/inkscape"
   xmlns:sodipodi="http://sodipodi.sourceforge.net/DTD/sodipodi-0.dtd"
   xmlns="http://www.w3.org/2000/svg"
   xmlns:svg="http://www.w3.org/2000/svg"
   xmlns:rdf="http://www.w3.org/1999/02/22-rdf-syntax-ns#"
   xmlns:cc="http://creativecommons.org/ns#"
   xmlns:dc="http://purl.org/dc/elements/1.1/">
  <defs
     id="defs9" />
  <sodipodi:namedview
     id="namedview7"
     pagecolor="#ffffff"
     bordercolor="#999999"
     borderopacity="1"
     inkscape:pageshadow="0"
     inkscape:pageopacity="0"
     inkscape:pagecheckerboard="0"
     showgrid="false"
     inkscape:zoom="16"
     inkscape:cx="22.28125"
     inkscape:cy="3.4375"
     inkscape:window-width="1920"
     inkscape:window-height="1017"
     inkscape:window-x="-8"
     inkscape:window-y="-8"
     inkscape:window-maximized="1"
     inkscape:current-layer="Layer_1" />
  <title
     id="title2">call-message</title>
  <metadata
     id="metadata828">
    <rdf:RDF>
      <cc:Work
         rdf:about="">
        <dc:title>call-message</dc:title>
      </cc:Work>
    </rdf:RDF>
  </metadata>
  <path
     id="path4"
     style="stroke-width:1"
     d="M 5.3398438 0.00390625 C 4.7373335 -0.018780868 4.1777776 0.08097001 3.6660156 0.27734375 C 2.4937246 0.72067234 1.5833522 1.6711842 0.98828125 2.8613281 C -0.11260275 5.0125132 -0.21684013 7.6133567 0.29492188 10.216797 C 0.94285687 13.296337 2.2053964 16.213891 4.0058594 18.794922 C 4.4610894 19.434624 4.9500908 20.009361 5.4023438 20.544922 L 5.4726562 20.630859 C 6.3283773 21.686039 7.313987 22.629649 8.40625 23.4375 C 9.4060458 24.156947 10.557176 24.637228 11.771484 24.84375 C 12.583127 24.998006 13.413595 25.038191 14.236328 24.962891 C 15.114092 24.882977 15.941522 24.522103 16.597656 23.933594 C 17.123863 23.467821 17.526186 22.879961 17.769531 22.220703 C 17.987614 21.645636 17.899787 20.999191 17.535156 20.503906 C 17.526186 20.490306 17.516699 20.477004 17.505859 20.464844 L 14.390625 17.033203 C 14.366825 17.015353 14.353878 16.995439 14.330078 16.974609 C 13.351185 16.0701 12.203794 16.876763 11.269531 17.525391 C 11.070943 17.674674 10.861984 17.809535 10.644531 17.929688 C 10.4615 18.035256 10.25852 18.102916 10.048828 18.128906 C 9.9186217 18.138469 9.7914119 18.088491 9.7011719 17.994141 C 8.4242431 16.739756 7.3758895 15.273986 6.6015625 13.660156 C 5.9479362 12.252811 5.475939 10.76668 5.1972656 9.2402344 C 5.2184054 9.2153521 5.9322294 8.3790328 6.5976562 8.1621094 C 6.8029562 8.0966514 6.9954884 8.0323465 7.1621094 7.9609375 C 7.6463954 7.8314698 8.0880651 7.5762715 8.4394531 7.21875 C 8.7984461 6.8244653 8.8940037 6.2555881 8.6835938 5.765625 L 7.5742188 0.83203125 C 7.5438648 0.66662351 7.4306136 0.52955095 7.2753906 0.46484375 C 6.5880826 0.17177082 5.942354 0.026593368 5.3398438 0.00390625 z M 8.6875 0.765625 A 0.12719101 0.12719101 0 0 0 8.5625 0.91992188 L 8.859375 2.2460938 A 0.12719101 0.12719101 0 0 0 8.984375 2.3457031 L 25.880859 2.3457031 L 13.695312 12.728516 L 8.1015625 8.1582031 A 0.12719101 0.12719101 0 0 0 7.9628906 8.1425781 C 7.6444945 8.3058018 7.5406695 8.341376 7.4199219 8.3867188 C 7.2991743 8.4320613 7.1658509 8.4859852 6.8300781 8.671875 A 0.12719101 0.12719101 0 0 0 6.8066406 8.8769531 L 8.9042969 10.839844 L 7.1757812 12.722656 A 0.12719101 0.12719101 0 0 0 7.1523438 12.859375 C 7.3499372 13.316508 7.5278376 13.605893 7.6582031 13.783203 C 7.7885686 13.960513 7.8828125 14.033203 7.8828125 14.033203 A 0.12719101 0.12719101 0 0 0 8.0507812 14.019531 L 10.125 11.84375 L 13.210938 14.353516 C 13.502045 14.594061 13.926326 14.593274 14.216797 14.351562 L 17.154297 11.847656 L 26.042969 21.181641 L 18.589844 21.181641 A 0.12719101 0.12719101 0 0 0 18.462891 21.3125 C 18.474207 21.692569 18.468241 21.917348 18.431641 22.083984 C 18.39504 22.250621 18.329208 22.370344 18.199219 22.5625 A 0.12719101 0.12719101 0 0 0 18.304688 22.759766 L 26.777344 22.759766 C 27.199426 22.758844 27.607678 22.611395 27.935547 22.345703 L 27.943359 22.339844 C 28.010733 22.305133 28.072966 22.262653 28.126953 22.210938 C 28.209069 22.132022 28.273132 22.0354 28.316406 21.929688 C 28.518088 21.626866 28.627367 21.272083 28.626953 20.908203 L 28.626953 2.6152344 C 28.625197 1.5959037 27.796674 0.76738006 26.777344 0.765625 L 8.6875 0.765625 z M 27.046875 3.4238281 L 27.046875 19.933594 L 18.361328 10.824219 L 27.046875 3.4238281 z " />
</svg>
