<?xml version="1.0" encoding="UTF-8" standalone="no"?>
<svg
   id="Layer_1"
   data-name="Layer 1"
   viewBox="0 0 28.500502 25.000002"
   version="1.1"
   sodipodi:docname="contact-us.svg"
   width="28.500502"
   height="25.000002"
   inkscape:version="1.1.2 (0a00cf5339, 2022-02-04, custom)"
   xmlns:inkscape="http://www.inkscape.org/namespaces/inkscape"
   xmlns:sodipodi="http://sodipodi.sourceforge.net/DTD/sodipodi-0.dtd"
   xmlns="http://www.w3.org/2000/svg"
   xmlns:svg="http://www.w3.org/2000/svg"
   xmlns:rdf="http://www.w3.org/1999/02/22-rdf-syntax-ns#"
   xmlns:cc="http://creativecommons.org/ns#"
   xmlns:dc="http://purl.org/dc/elements/1.1/">
  <defs
     id="defs9" />
  <sodipodi:namedview
     id="namedview7"
     pagecolor="#ffffff"
     bordercolor="#999999"
     borderopacity="1"
     inkscape:pageshadow="0"
     inkscape:pageopacity="0"
     inkscape:pagecheckerboard="0"
     showgrid="false"
     inkscape:zoom="18.733724"
     inkscape:cx="14.652719"
     inkscape:cy="9.8752387"
     inkscape:window-width="1920"
     inkscape:window-height="1017"
     inkscape:window-x="-8"
     inkscape:window-y="-8"
     inkscape:window-maximized="1"
     inkscape:current-layer="Layer_1" />
  <title
     id="title2">call-message</title>
  <path
     d="m 8.687678,0.8924362 h 18.090088 c 0.95076,0.001637 1.721096,0.7719729 1.722734,1.7227333 V 20.907681 c 3.92e-4,0.344928 -0.103307,0.681947 -0.297536,0.966992 -0.03641,0.09213 -0.09222,0.175337 -0.163645,0.243979 -0.04756,0.04556 -0.10173,0.08367 -0.16067,0.113064 -0.30862,0.258645 -0.698214,0.400794 -1.100883,0.401674 h -8.473329 c 0.265795,-0.392912 0.307891,-0.558687 0.285104,-1.324035 h 7.750847 l -9.176009,-9.637191 -3.028916,2.582613 v 0 c -0.244828,0.203729 -0.600174,0.203729 -0.845002,0 l -3.177684,-2.582613 v 0 l -2.15426,2.259154 c 0,0 -0.300582,-0.223178 -0.689339,-1.122569 L 9.083302,10.833113 6.893067,8.7822808 C 7.558534,8.4138664 7.378024,8.5851723 8.022112,8.2549849 L 13.698085,12.895037 26.227325,2.2194466 H 8.985214 Z M 5.193272,9.2234434 c 0.278252,1.5326596 0.751196,3.0234846 1.407345,4.4362616 0.774327,1.61383 1.823396,3.080714 3.100325,4.335099 0.09024,0.09435 0.217911,0.143454 0.348117,0.133891 0.209692,-0.02599 0.412041,-0.09378 0.595072,-0.199349 0.217453,-0.120153 0.426237,-0.255366 0.624825,-0.404649 0.934263,-0.648628 2.082752,-1.454951 3.061645,-0.550442 0.0238,0.02083 0.03571,0.04166 0.05951,0.05951 l 3.115201,3.430589 c 0.01084,0.01216 0.02078,0.02508 0.02975,0.03868 0.364631,0.495285 0.453136,1.141716 0.235053,1.716783 -0.243345,0.659258 -0.646084,1.248034 -1.172291,1.713807 -0.656134,0.588509 -1.484672,0.94956 -2.362436,1.029474 -0.822733,0.0753 -1.651953,0.03524 -2.463596,-0.119016 C 10.557484,24.63756 9.406456,24.156184 8.40666,23.436737 7.314397,22.628886 6.328676,21.686153 5.472955,20.630973 l -0.07141,-0.08629 C 4.949292,20.009122 4.461333,19.434878 4.006103,18.795176 2.2056398,16.214145 0.94376474,13.296754 0.29582954,10.217214 -0.21593236,7.6137738 -0.11179476,5.0133094 0.98908834,2.8621243 1.5841602,1.6719804 2.4946203,0.71986533 3.666912,0.27653674 4.690436,-0.11621074 5.901407,-0.12216146 7.276023,0.4639844 7.431246,0.5286916 7.543205,0.66752126 7.573559,0.832929 l 1.10981,4.9331464 C 8.893779,6.2560385 8.798382,6.8237662 8.439389,7.2180509 8.088001,7.5755724 7.647246,7.8324232 7.16296,7.9618909 6.996339,8.0332999 6.802941,8.095782 6.597641,8.16124 5.922235,8.3814166 5.190296,9.2472462 5.190296,9.2472462 v 0 z m 12.976779,1.5858666 9.003438,9.440817 V 3.1477589 l -9.003438,7.6704771 z"
     id="path4"
     style="stroke-width:1"
     sodipodi:nodetypes="cccccccccccccscccccccccccccccccccccccccccccccccccccccsccccccc" />
  <metadata
     id="metadata828">
    <rdf:RDF>
      <cc:Work
         rdf:about="">
        <dc:title>call-message</dc:title>
      </cc:Work>
    </rdf:RDF>
  </metadata>
</svg>
