<?xml version="1.0" encoding="UTF-8"?>
<svg enable-background="new 0 0 474 474" version="1.1" viewBox="0 0 474 474" xml:space="preserve" xmlns="http://www.w3.org/2000/svg">
	<path d="m437.5 59.3h-401c-20.1 0-36.5 16.4-36.5 36.5v282.4c0 20.1 16.4 36.5 36.5 36.5h401c20.1 0 36.5-16.4 36.5-36.5v-282.4c0-20.1-16.4-36.5-36.5-36.5zm-5.3 27-192.7 164.8-192.7-164.8h385.4zm14.8 291.9c0 5.2-4.3 9.5-9.5 9.5h-401c-5.2 0-9.5-4.3-9.5-9.5v-273.3l203.7 174.2c0.1 0.1 0.3 0.2 0.4 0.3s0.3 0.2 0.4 0.3c0.3 0.2 0.5 0.4 0.8 0.5 0.1 0.1 0.2 0.1 0.3 0.2l1.2 0.6c0.1 0 0.2 0.1 0.3 0.1 0.3 0.1 0.6 0.3 1 0.4 0.1 0 0.3 0.1 0.4 0.1 0.3 0.1 0.6 0.2 0.9 0.2 0.1 0 0.3 0.1 0.4 0.1 0.3 0.1 0.7 0.1 1 0.2h0.3c0.4 0 0.9 0.1 1.3 0.1s0.9 0 1.3-0.1h0.3c0.3 0 0.7-0.1 1-0.2 0.1 0 0.3-0.1 0.4-0.1 0.3-0.1 0.6-0.2 0.9-0.2 0.1 0 0.3-0.1 0.4-0.1 0.3-0.1 0.6-0.2 1-0.4 0.1 0 0.2-0.1 0.3-0.1l1.2-0.6c0.1-0.1 0.2-0.1 0.3-0.2 0.3-0.2 0.5-0.3 0.8-0.5 0.1-0.1 0.3-0.2 0.4-0.3s0.3-0.2 0.4-0.3l198.9-169.9v269z"/>
<g aria-label="GO"><path d="m323.88 342.86v-11.247h29.051v26.593q-4.2348 4.0982-12.294 7.2401-8.0142 3.0964-16.256 3.0964-10.473 0-18.26-4.3714-7.7865-4.4169-11.703-12.568-3.916-8.1963-3.916-17.804 0-10.428 4.3714-18.533 4.3714-8.1053 12.795-12.431 6.4205-3.3241 15.983-3.3241 12.431 0 19.398 5.2366 7.0124 5.191 9.016 14.389l-13.387 2.5044q-1.4116-4.9178-5.3276-7.741-3.8705-2.8687-9.699-2.8687-8.8338 0-14.07 5.6008-5.191 5.6008-5.191 16.62 0 11.885 5.2821 17.85 5.2821 5.9196 13.843 5.9196 4.2348 0 8.4696-1.6393 4.2803-1.6848 7.3312-4.0526v-8.4696z"/><path d="m362.63 334.44q0-10.2 3.0509-17.121 2.2768-5.0999 6.1928-9.1526 3.9616-4.0526 8.6517-6.0106 6.2383-2.641 14.389-2.641 14.753 0 23.587 9.1526 8.8794 9.1526 8.8794 25.454 0 16.165-8.7883 25.318-8.7883 9.107-23.496 9.107-14.89 0-23.678-9.0615-8.7883-9.107-8.7883-25.044zm13.888-0.45535q0 11.338 5.2366 17.212 5.2366 5.8285 13.296 5.8285t13.205-5.783q5.191-5.8285 5.191-17.44 0-11.475-5.0544-17.121-5.0089-5.6464-13.342-5.6464-8.333 0-13.433 5.7374-5.0999 5.6919-5.0999 17.212z"/></g></svg>
