<?xml version="1.0" encoding="UTF-8" standalone="no"?>
<svg
   version="1.1"
   id="Capa_1"
   x="0px"
   y="0px"
   viewBox="0 0 30.904963 24.999999"
   xml:space="preserve"
   sodipodi:docname="portfolio-icon.svg"
   width="30.904963"
   height="24.999998"
   inkscape:version="1.1.2 (0a00cf5339, 2022-02-04, custom)"
   xmlns:inkscape="http://www.inkscape.org/namespaces/inkscape"
   xmlns:sodipodi="http://sodipodi.sourceforge.net/DTD/sodipodi-0.dtd"
   xmlns="http://www.w3.org/2000/svg"
   xmlns:svg="http://www.w3.org/2000/svg"><defs
   id="defs7" /><sodipodi:namedview
   id="namedview5"
   pagecolor="#ffffff"
   bordercolor="#999999"
   borderopacity="1"
   inkscape:pageshadow="0"
   inkscape:pageopacity="0"
   inkscape:pagecheckerboard="0"
   showgrid="false"
   inkscape:zoom="31.324245"
   inkscape:cx="14.094514"
   inkscape:cy="12.961206"
   inkscape:window-width="1920"
   inkscape:window-height="1017"
   inkscape:window-x="-8"
   inkscape:window-y="-8"
   inkscape:window-maximized="1"
   inkscape:current-layer="Capa_1" />
<path
   d="M 28.653369,3.522998 H 28.416293 C 28.143845,2.981303 27.611517,2.612539 27.000681,2.612539 H 22.654018 V 1.827537 C 22.654018,0.819847 21.893297,0 20.958193,0 H 9.9473329 C 9.0118762,0 8.2508024,0.819771 8.2508024,1.827537 V 2.612539 H 3.9042803 c -0.6108359,0 -1.1431639,0.368764 -1.4156114,0.910459 H 2.2515924 C 1.0100819,3.522998 0,4.611486 0,5.949367 v 16.624187 c 0,1.337957 1.0100819,2.426445 2.2515924,2.426445 H 28.653369 c 1.241511,0 2.251593,-1.088488 2.251593,-2.426445 V 5.949367 c 0,-1.337881 -1.010082,-2.426369 -2.251593,-2.426369 z M 9.2391393,1.827537 c 0,-0.420346 0.317702,-0.762405 0.7081231,-0.762405 H 20.958123 c 0.390067,0 0.707417,0.341983 0.707417,0.762405 V 2.612539 H 9.2391393 Z M 3.2837016,4.346421 c 0,-0.368764 0.2783779,-0.668751 0.6205787,-0.668751 H 27.00061 c 0.342201,0 0.62058,0.299987 0.62058,0.668751 v 12.648052 c 0,1.757771 -1.327079,3.187862 -2.958234,3.187862 h -5.836405 l 0.311842,-1.932148 h -7.372249 l 0.311843,1.932148 H 6.2420053 c -1.6311548,0 -2.9582331,-1.430091 -2.9582331,-3.187862 V 4.346421 Z M 17.963247,19.315394 17.58497,21.659291 h -4.265331 l -0.378278,-2.343897 z m 11.953307,3.25816 c 0,0.750613 -0.56664,1.361314 -1.263185,1.361314 H 2.2515924 c -0.6964744,0 -1.26318488,-0.610624 -1.26318488,-1.361314 V 5.949367 c 0,-0.750537 0.56663988,-1.361238 1.26318488,-1.361238 h 0.043772 v 12.406344 c 0,2.345115 1.7704497,4.252993 3.9466406,4.252993 H 12.2499 l 0.238346,1.47688 h 5.928045 l 0.238348,-1.47688 h 6.008317 c 2.176192,0 3.946641,-1.907878 3.946641,-4.252993 V 4.588129 h 0.04377 c 0.696475,0 1.263185,0.610625 1.263185,1.361238 z"
   id="path2"
   style="stroke-width:0.999994" />
</svg>
