<?xml version="1.0" encoding="UTF-8" standalone="no"?>
<svg
   version="1.1"
   id="Capa_1"
   x="0px"
   y="0px"
   viewBox="0 0 30.904963 24.999999"
   xml:space="preserve"
   sodipodi:docname="portfolio-icon.svg"
   width="30.904963"
   height="24.999998"
   inkscape:version="1.1.2 (0a00cf5339, 2022-02-04, custom)"
   xmlns:inkscape="http://www.inkscape.org/namespaces/inkscape"
   xmlns:sodipodi="http://sodipodi.sourceforge.net/DTD/sodipodi-0.dtd"
   xmlns="http://www.w3.org/2000/svg"
   xmlns:svg="http://www.w3.org/2000/svg"><defs
   id="defs7" /><sodipodi:namedview
   id="namedview5"
   pagecolor="#ffffff"
   bordercolor="#999999"
   borderopacity="1"
   inkscape:pageshadow="0"
   inkscape:pageopacity="0"
   inkscape:pagecheckerboard="0"
   showgrid="false"
   inkscape:zoom="15.662123"
   inkscape:cx="13.823158"
   inkscape:cy="8.9387629"
   inkscape:window-width="1920"
   inkscape:window-height="1017"
   inkscape:window-x="-8"
   inkscape:window-y="-8"
   inkscape:window-maximized="1"
   inkscape:current-layer="Capa_1" />
<path
   id="path2"
   style="stroke-width:0.999994"
   sodipodi:type="inkscape:offset"
   inkscape:radius="0.2642194"
   inkscape:original="M 9.9472656 0 C 9.0118089 0 8.25 0.820359 8.25 1.828125 L 8.25 2.6132812 L 3.9042969 2.6132812 C 3.293461 2.6132812 2.7607288 2.9817425 2.4882812 3.5234375 L 2.2519531 3.5234375 C 1.0104426 3.5234375 0 4.6113378 0 5.9492188 L 0 22.574219 C 0 23.912176 1.0104426 25 2.2519531 25 L 28.654297 25 C 29.895808 25 30.904297 23.912176 30.904297 22.574219 L 30.904297 5.9492188 C 30.904297 4.6113377 29.895808 3.5234375 28.654297 3.5234375 L 28.416016 3.5234375 C 28.143568 2.9817425 27.610836 2.6132813 27 2.6132812 L 22.654297 2.6132812 L 22.654297 1.828125 C 22.654297 0.820435 21.894088 2.9605947e-16 20.958984 0 L 9.9472656 0 z M 9.9472656 1.0644531 L 20.958984 1.0644531 C 21.349051 1.0644531 21.666016 1.407703 21.666016 1.828125 L 21.666016 2.6132812 L 9.2382812 2.6132812 L 9.2382812 1.828125 C 9.2382812 1.407779 9.5568445 1.0644531 9.9472656 1.0644531 z M 3.9042969 3.6777344 L 27 3.6777344 C 27.342201 3.6777344 27.621094 3.9769391 27.621094 4.3457031 L 27.621094 16.994141 C 27.621094 18.751912 26.293264 20.181641 24.662109 20.181641 L 18.826172 20.181641 L 19.138672 18.25 L 11.765625 18.25 L 12.078125 20.181641 L 6.2421875 20.181641 C 4.6110327 20.181641 3.2832031 18.751912 3.2832031 16.994141 L 3.2832031 4.3457031 C 3.2832031 3.9769391 3.5620961 3.6777344 3.9042969 3.6777344 z M 2.2519531 4.5878906 L 2.2949219 4.5878906 L 2.2949219 16.994141 C 2.2949219 19.339256 4.0659966 21.248047 6.2421875 21.248047 L 12.25 21.248047 L 12.488281 22.724609 L 18.416016 22.724609 L 18.654297 21.248047 L 24.662109 21.248047 C 26.838301 21.248047 28.609375 19.339256 28.609375 16.994141 L 28.609375 4.5878906 L 28.654297 4.5878906 C 29.350772 4.5878906 29.916016 5.1986058 29.916016 5.9492188 L 29.916016 22.574219 C 29.916016 23.324832 29.350842 23.935547 28.654297 23.935547 L 2.2519531 23.935547 C 1.5554787 23.935547 0.98828125 23.324909 0.98828125 22.574219 L 0.98828125 5.9492188 C 0.98828125 5.1986817 1.5554081 4.5878906 2.2519531 4.5878906 z M 12.941406 19.314453 L 17.962891 19.314453 L 17.585938 21.660156 L 13.320312 21.660156 L 12.941406 19.314453 z "
   d="m 9.9472656,-0.26367188 c -1.0899301,0 -1.9609375,0.95087517 -1.9609375,2.09179688 V 2.3496094 H 3.9042969 c -0.6565163,0 -1.2217601,0.3712778 -1.5546875,0.9101562 h -0.097656 c -1.39586243,0 -2.51562497,1.2185366 -2.51562498,2.6894532 V 22.574219 c 0,1.470985 1.11977337,2.689453 2.51562498,2.689453 H 28.654297 c 1.395852,0 2.513672,-1.218725 2.513672,-2.689453 V 5.9492188 c 0,-1.4706594 -1.117809,-2.6894532 -2.513672,-2.6894532 h -0.09961 C 28.22176,2.7208874 27.656516,2.3496095 27,2.3496094 H 22.917969 V 1.828125 c 0,-1.14057608 -0.869335,-2.09179687 -1.958985,-2.09179688 z m 0,1.59179688 H 20.958984 c 0.235063,0 0.44336,0.2123784 0.44336,0.5 V 2.3496094 H 9.5019531 V 1.828125 c 0,-0.2868518 0.2097898,-0.5 0.4453125,-0.5 z M 3.9042969,3.9414062 H 27 c 0.188187,0 0.357422,0.1687508 0.357422,0.4042969 V 16.994141 c 0,1.624709 -1.218552,2.923828 -2.695313,2.923828 h -5.52539 l 0.263672,-1.625 a 0.26424583,0.26424583 0 0 0 -0.261719,-0.306641 h -7.373047 a 0.26424583,0.26424583 0 0 0 -0.261719,0.306641 l 0.263672,1.625 H 6.2421875 c -1.4767602,0 -2.6953125,-1.299119 -2.6953125,-2.923828 V 4.3457031 c 0,-0.2355461 0.1692353,-0.4042968 0.3574219,-0.4042969 z M 2.03125,4.9003906 V 16.994141 c 0,2.478144 1.8802443,4.517578 4.2109375,4.517578 h 5.7832035 l 0.201171,1.255859 a 0.26424583,0.26424583 0 0 0 0.261719,0.220703 h 5.927735 a 0.26424583,0.26424583 0 0 0 0.261718,-0.220703 l 0.201172,-1.255859 h 5.783203 c 2.330695,0 4.210938,-2.039434 4.210938,-4.517578 V 4.9003906 c 0.437486,0.1109437 0.779297,0.5186913 0.779297,1.0488282 V 22.574219 c 0,0.617983 -0.455943,1.097656 -0.998047,1.097656 H 2.2519531 c -0.5420371,0 -1,-0.480057 -1,-1.097656 V 5.9492188 c 0,-0.5289349 0.3422766,-0.9370467 0.7792969,-1.0488282 z M 13.251953,19.578125 h 4.400391 l -0.291016,1.818359 h -3.816406 z" />
</svg>
